# xmcd CD database file
#
# Track frame offsets:
#	150
#	58763
#	99876
#	132242
#	181890
#	213053
#	237684
#	263364
#	289735
#
# Disc length: 4196 seconds
#
# Revision: 1
# Processed by: cddbd v1.5.2PL0 Copyright (c) Steve Scherf et al.
# Submitted via: CDex 1.70beta2
#
DISCID=79106209
DTITLE=Florian Sagner X-Tett - About Time
DYEAR=2010
DGENRE=Jazz
TTITLE0=Mobinil
TTITLE1=Dedecation
TTITLE2=Mr. Clean
TTITLE3=Night Work
TTITLE4=Toms Tune
TTITLE5=The Mantis
TTITLE6=Spirit 34
TTITLE7=Xangirla
TTITLE8=The Days of Wine and Roses
EXTD=YEAR: 2010
EXTT0=
EXTT1=
EXTT2=
EXTT3=
EXTT4=
EXTT5=
EXTT6=
EXTT7=
EXTT8=
PLAYORDER=
